<svg xmlns="http://www.w3.org/2000/svg" viewBox="0 0 500 500"><g id="freepik--Hand_2--inject-11"><g><path d="M269.758,394.054s69.681-49.956,76.128-40.478c6.447,9.479-64.841,49.412-76.128,40.478Z" style="fill:#407BFF;"></path><path d="M370.245,392.528s-47.054-57.137-50.415-73.521c-3.361-16.385-4.201-14.284,4.621-30.669s17.645-31.638,14.284-51.319c-3.361-19.681-3.781-46.223-4.201-48.707-.42-2.484-8.402-13.827-10.083-23.91s1.26-17.225-5.041-18.485c-6.302-1.26-20.166,6.302-18.905,21.426,0,0-12.604-68.06-20.166-75.202-7.562-7.142-12.604-6.045-15.965-2.182,0,0-5.631-19.855-17.199-12.574-8.824,5.554-7.168,15.176-7.168,15.176,0,0-3.911-9.243-12.668-5.882-8.758,3.361-7.917,21.426-7.497,20.166,.42-1.26-7.271-4.201-10.778-.84s-11.962,112.395-7.734,126.568c4.228,14.173,16.19,78.032,27.224,91.056,11.034,13.024,22.797,22.266,37.502,53.776,14.704,31.509,26.678,57.529,26.678,57.529,0,0,42.642-7.954,77.512-42.405Z" style="fill:#b97964;"></path><path d="M290.523,190.796c-.108,.949-59.815,20.628-63.362,21.752,1.063-3.029,63.511-23.056,63.362-21.752Z" style="fill:#a24e3f; opacity:.4;"></path><path d="M275.464,295.525c1.82-6.138,14.229-69.659,18.479-74.447,0,0-8.734,3.699-13.704,19.122-4.144,13.387-4.764,33.752-4.775,55.325Z" style="fill:#a24e3f; opacity:.4;"></path><g style="opacity:.4;"><path d="M282.822,372.923c8.338,8.405-9.923-21.554-16.856-31.152,0,0,4.482,18.679,16.856,31.152Z" style="fill:#a24e3f;"></path></g><path d="M310.547,187.525l-3.629,7.226c-2.919-4.964-7.38-17.579-6.46-30.494,0,0-3.247,15.72,1.335,26.383,4.583,10.662,3.492,11.754,3.492,11.754,0,0-1.166,15.057,3.563,21.604l-.108-3.265c-2.623-10.932-1.987-22.625,1.807-33.208Z" style="fill:#a24e3f; opacity:.4;"></path><g style="opacity:.4;"><path d="M269.188,170.078s-4.183-72.749-4.943-80.528c0,0,11.505,48.308,4.943,80.528Z" style="fill:#a24e3f;"></path></g><g style="opacity:.4;"><path d="M244.647,172.597s-4.183-72.749-4.943-80.528c0,0,11.505,48.308,4.943,80.528Z" style="fill:#a24e3f;"></path></g><g style="opacity:.4;"><path d="M224.141,187.159c-3.407-.014-6.903-72.76-4.943-80.528,0,0,7.284,46.433,4.943,80.528Z" style="fill:#a24e3f;"></path></g><path d="M345.886,361.358h0c-12.054-16.192-24.394-34.251-26.056-42.351-3.361-16.385-4.201-14.284,4.621-30.669,4.28-7.948,8.556-15.632,11.445-23.682h0s-21.423,45.792-44.214,57.581l20.476-4.604s15.235,36.086,33.728,43.726Z" style="opacity:.3;"></path><path d="M290.632,437.297l-20.874-43.243c6.357,6.958,81.949-35.659,76.128-40.478-.885-.733,27.002,38.701,27.002,38.701,0,0-27.597,39.74-82.256,45.019Z" style="fill:#407BFF;"></path><path d="M322.923,148.488s-4.193,3.956-3.622,11.406c.57,7.451,2.226,10.872,3.622,10.53,1.396-.342,2.694-1.346,2.694-1.346,0,0-1.755-5.784-1.755-11.142,0-6.558-.939-9.448-.939-9.448Z" style="fill:#fff; opacity:.3;"></path><path d="M326.433,190.84c-.162,0-.321-.079-.418-.225-.151-.23-.088-.541,.143-.692,2.336-1.538,5.161-2.329,7.952-2.233,.275,.009,.492,.241,.482,.517-.01,.276-.229,.512-.518,.482-2.591-.092-5.204,.645-7.366,2.069-.085,.056-.181,.083-.275,.083Z" style="fill:#a24e3f;"></path><path d="M327.193,185.862c-.192,0-.375-.111-.458-.298-.111-.253,.004-.548,.257-.659,1.489-.656,3.137-1.035,4.764-1.096,.277-.023,.508,.206,.519,.481,.01,.276-.205,.508-.481,.518-1.502,.057-3.022,.406-4.398,1.012-.065,.029-.134,.042-.201,.042Z" style="fill:#a24e3f;"></path><path d="M290.632,437.297l-20.874-43.243c6.357,6.958,81.949-35.659,76.128-40.478-.885-.733,27.002,38.701,27.002,38.701,0,0-27.597,39.74-82.256,45.019Z" style="fill:#fff; opacity:.5;"></path></g></g><g id="freepik--Hand_1--inject-11"><g><path d="M178.096,168.383s-5.096-17.639-14.111-12.544c-9.016,5.096-5.488,13.328-5.488,25.479s-5.488,46.255,1.96,69.774c7.448,23.519,19.207,37.239,17.639,60.758-1.568,23.519-39.591,93.293-39.591,93.293,0,0,51.742,31.359,83.493,30.967,0,0,37.239-98.389,43.903-109.365,6.664-10.976,18.423-31.231,18.815-54.878s-4.312-138.372-7.84-148.171-12.936-16.855-19.207-5.88c0,0,1.96-37.239-11.76-37.631,0,0-10.976,.392-12.152,10.976,0,0,0-16.855-10.584-17.247-10.584-.392-12.936,15.287-14.112,22.343,0,0-3.414-5.875-9.408-5.488-4.579,.296-12.936,3.528-14.896,22.735-1.96,19.207-6.664,54.878-6.664,54.878Z" style="fill:#faac6d;"></path><path d="M178.096,168.383s-5.529,24.312-6.093,38.506c-.557,14.02,4.842,41.778,4.842,41.778,0,0-8.934-24.302-8.394-42.409,.54-18.108,9.645-37.874,9.645-37.874Z" style="fill:#e97f3f; opacity:.3;"></path><path d="M233.759,91.162l-4.591,94.132s-3.044-16.307-1.136-47.668,5.727-46.464,5.727-46.464Z" style="fill:#e97f3f; opacity:.3;"></path><path d="M257.67,188.311c4.83-19.873,0-70.494,0-70.494v70.494Z" style="fill:#e97f3f; opacity:.3;"></path><g style="opacity:.3;"><path d="M201.046,217.418s-2.974-12.586-.934-18.61c-.508,.736-5.274,10.784,.934,18.61Z" style="fill:#e97f3f;"></path></g><g style="opacity:.3;"><path d="M229.787,199.443s-5.709,7.527,.793,17.141c0,0-1.325-10.988-.793-17.141Z" style="fill:#e97f3f;"></path></g><path d="M201.329,181.453l7.734-85.196c-.002,.01-12.091,50.952-7.734,85.196Z" style="fill:#e97f3f; opacity:.3;"></path><g style="opacity:.2;"><path d="M199.939,108.354c.749-.225,1.519-.358,1.784-1.093,1.953-5.42,.617-10.832,.331-11.857-.031-.111-.068-.215-.12-.318-.462-.923-1.25-1.715-2.244-1.98-1.865-.498-4.294-.059-5.635,1.329-3.148,3.26-5.363,8.379-4.993,12.896h0s3.724,3.177,10.876,1.024Z" style="fill:#fff;"></path></g><g style="opacity:.2;"><path d="M225.508,90.203c-.248,.736-1.011,1.362-1.742,1.365-2.168,.008-2.966-.199-5.483-.461-1.865-.194-4.127-.594-4.602-.834h0c-.346-4.517,.199-9.194,3.139-12.453,1.253-1.389,5.046-2.269,6.788-1.771,.928,.265,1.664,1.057,2.096,1.98,.048,.103,.083,.207,.112,.318,.267,1.025,1.515,6.437-.309,11.857Z" style="fill:#fff;"></path></g><g style="opacity:.2;"><path d="M247.853,97.236c-.248,.736-1.046,1.303-1.73,1.564-1.235,.47-4.31-.21-5.454-.458-1.688-.365-4.167-.796-4.642-1.036h0c-.346-4.517,.095-9.933,3.036-13.193,1.253-1.389,3.842-1.954,5.629-1.656,2.384,.397,2.927,1.681,3.358,2.604,.048,.103,.083,.207,.112,.318,.267,1.025,1.515,6.437-.309,11.857Z" style="fill:#fff;"></path></g><g style="opacity:.2;"><path d="M273.684,127.549h0c-.851-5.812-1.514-8.532-4.143-11.446-1.12-1.241-3.909-1.533-5.466-1.088-.83,.237-1.488,.945-1.873,1.77-.043,.092-.074,.185-.1,.284-.239,.917-1.354,5.753,.276,10.598,.221,.658,.842,1.062,1.49,.977,0,0,7.538,1.156,9.816-1.095Z" style="fill:#fff;"></path></g><path d="M159.033,175.785c.284,.095,7.762,3.313,8.33,0,.568-3.313-.931-14.649-3.455-15.083-3.399-.584-4.64-.749-5.253,5.428s.379,9.655,.379,9.655Z" style="fill:#fff; opacity:.2;"></path><circle cx="212.804" cy="204.888" r="8.881" transform="translate(-23.446 382.23) rotate(-80.808)" style="fill:#e97f3f; opacity:.4;"></circle><ellipse cx="183.665" cy="206.97" rx="9.251" ry="8.161" style="fill:#e97f3f; opacity:.4;"></ellipse><ellipse cx="248.593" cy="209.168" rx="10.521" ry="9.725" style="fill:#e97f3f; opacity:.4;"></ellipse><g><path d="M194.972,144.601c-.028,0-.056-.002-.084-.007-2.949-.5-5.959-.674-8.949-.519-.286,.015-.511-.198-.525-.474-.014-.276,.198-.511,.474-.525,3.062-.159,6.147,.02,9.168,.532,.272,.046,.456,.305,.41,.577-.042,.244-.253,.417-.493,.417Z" style="fill:#e97f3f;"></path><path d="M195.197,141.281c-.063,0-.127-.012-.189-.037-2.307-.941-4.93-1.233-7.389-.822-.274,.049-.53-.138-.576-.411-.045-.272,.138-.53,.411-.576,2.676-.449,5.418-.143,7.932,.883,.255,.104,.378,.396,.274,.652-.079,.194-.266,.311-.463,.311Z" style="fill:#e97f3f;"></path><path d="M192.119,148.277c-1.884,0-3.757-.365-5.518-1.083-.255-.104-.378-.396-.274-.652s.397-.378,.652-.274c2.307,.941,4.93,1.233,7.389,.822,.271-.047,.53,.138,.576,.411,.045,.272-.138,.53-.411,.576-.801,.134-1.608,.201-2.414,.201Z" style="fill:#e97f3f;"></path></g><g><path d="M220.961,143.179c-.028,0-.056-.002-.084-.007-2.949-.5-5.961-.674-8.949-.519-.284,.01-.511-.198-.525-.474-.014-.275,.198-.511,.474-.525,3.061-.158,6.146,.02,9.168,.531,.272,.046,.456,.304,.41,.577-.042,.244-.253,.417-.493,.417Z" style="fill:#e97f3f;"></path><path d="M221.187,139.859c-.063,0-.127-.012-.189-.037-2.308-.941-4.932-1.233-7.389-.822-.275,.044-.53-.139-.576-.411-.045-.272,.138-.53,.411-.576,2.675-.447,5.419-.143,7.932,.882,.255,.104,.378,.396,.274,.652-.079,.194-.266,.311-.463,.311Z" style="fill:#e97f3f;"></path><path d="M218.109,146.855c-1.885,0-3.758-.365-5.52-1.083-.255-.104-.378-.396-.274-.652s.397-.378,.652-.274c2.308,.942,4.931,1.234,7.389,.822,.274-.047,.53,.138,.576,.411s-.138,.53-.411,.576c-.801,.134-1.607,.2-2.412,.2Z" style="fill:#e97f3f;"></path></g><g><path d="M249.115,144.382c-.028,0-.056-.002-.084-.007-2.95-.5-5.963-.674-8.949-.519-.279,.005-.511-.198-.525-.474s.198-.511,.474-.525c3.062-.157,6.146,.021,9.168,.531,.272,.046,.456,.304,.41,.577-.042,.244-.253,.417-.493,.417Z" style="fill:#e97f3f;"></path><path d="M249.34,141.063c-.063,0-.127-.012-.189-.037-2.307-.941-4.93-1.233-7.389-.822-.271,.047-.53-.138-.576-.411-.045-.272,.138-.53,.411-.576,2.676-.448,5.42-.142,7.932,.883,.256,.104,.378,.396,.274,.652-.079,.194-.266,.311-.463,.311Z" style="fill:#e97f3f;"></path><path d="M246.262,148.06c-1.884,0-3.758-.365-5.518-1.083-.256-.104-.378-.396-.274-.652,.105-.255,.396-.378,.652-.274,2.307,.942,4.93,1.234,7.389,.822,.27-.049,.53,.138,.576,.411,.045,.272-.138,.53-.411,.576-.801,.134-1.608,.201-2.414,.201Z" style="fill:#e97f3f;"></path></g><g><path d="M274.649,164.757c-.028,0-.057-.002-.085-.007-2.948-.5-5.958-.676-8.948-.519-.271,.018-.511-.198-.525-.474-.015-.275,.197-.511,.473-.525,3.063-.159,6.146,.019,9.169,.531,.271,.046,.455,.304,.409,.577-.042,.244-.253,.417-.492,.417Z" style="fill:#e97f3f;"></path><path d="M274.874,161.438c-.063,0-.127-.012-.188-.037-2.307-.941-4.932-1.232-7.39-.822-.267,.048-.529-.138-.575-.411s.139-.53,.411-.576c2.676-.449,5.418-.143,7.931,.883,.256,.104,.379,.396,.274,.652-.079,.194-.266,.311-.463,.311Z" style="fill:#e97f3f;"></path><path d="M271.797,168.434c-1.885,0-3.759-.365-5.52-1.083-.256-.104-.379-.396-.274-.652s.398-.378,.651-.274c2.341,.954,4.895,1.239,7.391,.822,.268-.046,.529,.138,.575,.411s-.139,.53-.411,.576c-.8,.134-1.607,.2-2.412,.2Z" style="fill:#e97f3f;"></path></g><path d="M131.681,402.4l32.389-58.204c23.607,21.044,49.796,35.985,81.258,38.465l-19.233,57.698c-34.179-4.245-77.908-23.707-94.415-37.959Z" style="fill:#407BFF;"></path><path d="M195.343,109.441c-2.141,0-4.283-.548-6.116-1.634l.51-.86c3.145,1.862,7.283,1.999,10.542,.346l.452,.892c-1.657,.84-3.521,1.257-5.388,1.257Z" style="fill:#fff; opacity:.2;"></path><path d="M221.731,91.406c-3.248,0-7.155-.886-7.768-1.03-.269-.063-.436-.332-.373-.601,.063-.27,.331-.436,.601-.373,4.021,.945,9.083,1.485,10.687,.435,.232-.149,.541-.085,.692,.146,.151,.231,.085,.541-.146,.692-.829,.541-2.191,.73-3.694,.73Z" style="fill:#fff; opacity:.2;"></path><path d="M244.389,98.908c-3.219,0-6.668-1.2-8.221-1.814-.257-.102-.383-.392-.281-.648,.102-.258,.394-.382,.648-.281,3.871,1.53,7.605,2.096,9.991,1.511,.269-.067,.539,.098,.605,.367,.065,.269-.099,.539-.367,.605-.753,.184-1.557,.262-2.375,.262Z" style="fill:#fff; opacity:.2;"></path><path d="M163.75,177.17c-1.513,0-3.024-.388-4.344-1.148l.499-.866c1.949,1.123,4.372,1.328,6.481,.55l.346,.938c-.956,.353-1.969,.526-2.981,.526Z" style="fill:#fff; opacity:.2;"></path><path d="M267.663,129.557c-1.454,0-2.908-.232-4.292-.702-.261-.089-.401-.373-.312-.634,.09-.262,.373-.402,.635-.313,3.011,1.022,6.39,.832,9.268-.525,.249-.119,.548-.011,.665,.239,.118,.25,.011,.548-.239,.666-1.788,.843-3.756,1.27-5.724,1.27Z" style="fill:#fff; opacity:.2;"></path><path d="M142.102,375.418c4.033-7.565,8.066-15.129,12.099-22.694,.454-.852-.84-1.61-1.295-.757-4.033,7.565-8.066,15.129-12.099,22.694-.454,.852,.84,1.61,1.295,.757h0Z" style="fill:#407BFF;"></path><path d="M156.5,348.585c.719-1.282,1.439-2.564,2.158-3.846,.192-.342,.093-.835-.269-1.026-.354-.187-.821-.096-1.026,.269-.719,1.282-1.439,2.564-2.158,3.846-.192,.342-.093,.835,.269,1.026,.354,.187,.821,.096,1.026-.269h0Z" style="fill:#407BFF;"></path></g></g></svg>
