<svg xmlns="http://www.w3.org/2000/svg" version="1.1" xmlns:xlink="http://www.w3.org/1999/xlink" xmlns:svgjs="http://svgjs.dev/svgjs" width="1440" height="560" preserveAspectRatio="none" viewBox="0 0 1440 560"><g mask="url(&quot;#SvgjsMask1479&quot;)" fill="none"><path d="M28.72 140C28.72 122.59 4.37 125.75 0 104.44C-9.99 55.75 -29.91 22.31 0 0C40.09 -29.91 70 0 140 0C197.03 0 203.65 -12.93 254.07 0C273.65 5.02 265.6 35.9 280 35.9C296.51 35.9 292.95 5.88 315.9 0C362.95 -12.07 367.95 0 420 0C490 0 490 0 560 0C630 0 630 0 700 0C770 0 770 0 840 0C880 0 880.5 -4.16 920 0C950.5 3.21 952.32 14.74 980 14.74C988.78 14.74 983.57 0.98 992.92 0C1053.57 -6.39 1056.46 0 1120 0C1190 0 1190 0 1260 0C1330 0 1330 0 1400 0C1470 0 1505 -35 1540 0C1575 35 1540 70 1540 140C1540 210 1540 210 1540 280C1540 323.75 1549.93 326.69 1540 367.5C1532.9 396.69 1511.93 390.28 1505.95 420C1492.57 486.53 1532.03 519.37 1501.28 560C1479.05 589.37 1450.64 560 1400 560C1347.69 560 1342.9 571.75 1295.38 560C1272.9 554.44 1277.69 525.38 1260 525.38C1242.31 525.38 1247.1 554.44 1224.62 560C1177.1 571.75 1172.31 560 1120 560C1050 560 1050 560 980 560C942.76 560 940.23 569.42 905.53 560C870.23 550.41 869.94 521.98 840 521.98C819.47 521.98 827.83 553.69 804.6 560C757.83 572.7 752.3 560 700 560C635.91 560 634.02 564.85 571.83 560C564.02 559.39 567.18 549.09 560 549.09C543 549.09 542.32 558.53 523.48 560C472.32 563.99 471.74 560 420 560C350 560 350 560 280 560C210 560 210 560 140 560C83.29 560 43.79 590.8 26.58 560C4.67 520.8 70.76 477.7 61.76 420C57.47 392.48 11.92 416.58 0 389.57C-18.96 346.58 0 334.78 0 280C0 226 -10.27 222.07 0 172C4.09 152.07 28.72 156.37 28.72 140" stroke="rgba(0, 21, 255, 1)" stroke-width="2"></path><path d="M420 119.41C409.63 119.41 399.41 128.39 399.41 140C399.41 156.19 409.59 175 420 175C430.49 175 441.21 156.14 441.21 140C441.21 128.34 430.53 119.41 420 119.41" stroke="rgba(0, 21, 255, 1)" stroke-width="2"></path><path d="M700 115.86C685.67 122.45 678.79 129.09 678.79 140C678.79 148.94 691.72 145.43 700 155.56C748.99 215.43 742.49 221.94 793.33 280C812.49 301.88 812.47 310.98 840 315.44C905.81 326.11 912.17 321.95 980 310.27C1015.11 304.23 1045.88 295.78 1045.88 280C1045.88 263.93 1009.23 268.71 980 246.57C916.79 198.71 908.23 200.95 861 140C838.23 110.61 867.48 70 840 65.88C786.98 57.93 766.28 85.39 700 115.86" stroke="rgba(0, 21, 255, 1)" stroke-width="2"></path><path d="M73.59 140C73.59 95.4 25.96 98.27 0 48.89C-10.84 28.27 -18.12 6.33 0 0C51.88 -18.12 70 0 140 0C164.63 0 172.38 -15.15 189.26 0C242.38 47.67 233.02 64.29 280 125.64C286.62 134.29 296.47 131.48 296.47 140C296.47 152.66 291.72 156.93 280 168C217.61 226.93 148.24 235.42 148.24 280C148.24 316.31 211.92 319.46 280 329.78C347.8 340.05 354.1 337.51 420 321.18C454.53 312.62 460.4 309.14 480.87 280C524.03 218.55 561.46 201.44 547.27 140C531.03 69.67 483.05 78.79 420 16.47C412.23 8.79 405.64 4.97 405.64 0C405.64 -3.27 412.82 0 420 0C490 0 490 0 560 0C595 0 627.99 -22.15 630 0C634.35 47.85 555.6 82.91 572.73 140C590.6 199.57 640.76 182.22 700 233.33C721.9 252.22 735 255.43 735 280C735 310.59 717.03 311.57 700 343.64C679.85 381.57 660.63 384.39 660.63 420C660.63 444.3 679.19 463.45 700 463.45C723.1 463.45 722.38 439.32 748.46 420C792.38 387.47 789.17 373.45 840 359.75C904.94 342.24 912.65 371.74 980 357.57C1052.65 342.29 1050.98 331.22 1120 300.85C1139.13 292.43 1156.3 292.06 1156.3 280C1156.3 266.32 1141.15 259.66 1120 249.38C1053 216.82 1045.09 229.81 980 194.33C944.76 175.12 919.33 168.39 919.33 140C919.33 109.29 950.36 108.7 980 76.14C1014.08 38.7 1006.15 22.09 1046.77 0C1076.15 -15.98 1083.39 0 1120 0C1190 0 1190 0 1260 0C1330 0 1330 0 1400 0C1460 0 1469 -14.57 1520 0C1539 5.43 1536.91 18.37 1540 40C1546.91 88.37 1540 90 1540 140C1540 186.67 1559.72 197.83 1540 233.33C1520.83 267.83 1486.57 244.67 1462.22 280C1422.24 338.01 1410.9 350.15 1411.35 420C1411.81 490.15 1468.01 510.98 1464.04 560C1462.34 580.98 1432.02 560 1400 560C1366.93 560 1361.17 574.1 1333.85 560C1291.17 537.97 1296.93 487.74 1260 487.74C1223.07 487.74 1228.83 537.97 1186.15 560C1158.83 574.1 1153.07 560 1120 560C1050 560 1050 560 980 560C980 560 980 560 980 560C910 519.38 903.96 478.77 840 478.77C796.14 478.77 808.67 534.29 764.37 560C738.67 574.91 732.18 560 700 560C660.57 560 655.21 573.72 621.13 560C585.21 545.54 597.2 510.11 560 503.64C496.64 492.61 490.4 519.86 420 525C350.4 530.09 343.48 510.92 280 524.1C259.2 528.42 271.85 554.76 251.43 560C201.85 572.71 195.72 560 140 560C105.44 560 70.89 580.08 70.89 560C70.89 519.42 101.77 496.15 140 438.67C148.33 426.15 164 433.8 164 420C164 364.46 177.49 318.55 140 300C95.49 277.97 49.82 345.96 0 338.84C-20.18 335.96 0 309.42 0 280C0 251 -12.69 246.14 0 222C24.11 176.14 73.59 181.96 73.59 140" stroke="rgba(0, 21, 255, 1)" stroke-width="2"></path><path d="M1260 10.77C1218.47 18.61 1214.59 79.7 1214.59 140C1214.59 170.56 1230.1 177.45 1260 192.5C1322.81 224.12 1342.85 248.17 1400 233.33C1443.96 221.92 1462.22 179.21 1462.22 140C1462.22 115.05 1430.06 124.21 1400 105C1328.95 59.59 1311.17 1.11 1260 10.77" stroke="rgba(0, 21, 255, 1)" stroke-width="2"></path><path d="M118.46 140C118.46 94.45 122.83 46.67 140 46.67C159.06 46.67 190.91 97.57 190.91 140C190.91 167.57 160.77 186.67 140 186.67C124.54 186.67 118.46 164.45 118.46 140" stroke="rgba(0, 21, 255, 1)" stroke-width="2"></path><path d="M977.67 140C977.67 138.82 978.32 137.54 980 137.54C1049.48 137.54 1120 138.86 1120 140C1120 141.14 1049.61 142.09 980 142.09C978.44 142.09 977.67 141.09 977.67 140" stroke="rgba(0, 21, 255, 1)" stroke-width="2"></path><path d="M1120 140C1105.8 140 1100.62 61.56 1100.62 0C1100.62 -8.44 1110.31 0 1120 0C1139.09 0 1158.18 -14.58 1158.18 0C1158.18 55.42 1134.58 140 1120 140" stroke="rgba(0, 21, 255, 1)" stroke-width="2"></path><path d="M1400 50.31C1366.82 50.31 1331.49 13.93 1331.49 0C1331.49 -11.23 1365.74 0 1400 0C1428.75 0 1457.5 -10.8 1457.5 0C1457.5 14.35 1429.82 50.31 1400 50.31" stroke="rgba(0, 21, 255, 1)" stroke-width="2"></path><path d="M0 272C7.29 272 20 275.97 20 280C20 284.03 7.27 288.12 0 288.12C-2.73 288.12 0 284.06 0 280C0 276 -2.71 272 0 272" stroke="rgba(0, 21, 255, 1)" stroke-width="2"></path><path d="M264 420C264 413.5 270.24 407.56 280 407.56C334.24 407.56 392 413.31 392 420C392 426.71 333.76 434.36 280 434.36C269.76 434.36 264 426.9 264 420" stroke="rgba(0, 21, 255, 1)" stroke-width="2"></path><path d="M426.36 420C426.36 385.89 504.71 330.91 560 330.91C594.5 330.91 605.94 380.13 605.94 420C605.94 443.76 586.99 458.18 560 458.18C497.2 458.18 426.36 449.52 426.36 420" stroke="rgba(0, 21, 255, 1)" stroke-width="2"></path><path d="M815.77 420C815.77 412.09 825.91 405.35 840 404.05C908.02 397.78 910.76 411.96 980 404.86C1050.76 397.6 1052.88 398.54 1120 375.32C1192.88 350.11 1203.81 295.85 1260 308C1307.15 318.19 1326.67 374.49 1326.67 420C1326.67 445.54 1288.43 427.87 1260 450.11C1198.94 497.87 1207.2 513.29 1147.69 560C1137.2 568.23 1133.85 560 1120 560C1090.7 560 1082.73 576.16 1061.4 560C1012.73 523.13 1033.84 484.2 980 453.94C923.14 421.98 908.21 449.66 840 435.56C826.09 432.69 815.77 427.85 815.77 420" stroke="rgba(0, 21, 255, 1)" stroke-width="2"></path><path d="M115.19 560C115.19 545.43 125.13 516.44 140 516.44C157.54 516.44 180 547.01 180 560C180 568.79 160 560 140 560C127.6 560 115.19 567.21 115.19 560" stroke="rgba(0, 21, 255, 1)" stroke-width="2"></path><path d="M670.42 560C670.42 548.91 686.09 523.79 700 523.79C712.95 523.79 724.14 548.35 724.14 560C724.14 566.46 712.07 560 700 560C685.21 560 670.42 567.02 670.42 560" stroke="rgba(0, 21, 255, 1)" stroke-width="2"></path><path d="M1372.31 560C1372.31 537.54 1386.34 497 1400 497C1413.59 497 1426.81 537.36 1426.81 560C1426.81 568.86 1413.4 560 1400 560C1386.15 560 1372.31 569.04 1372.31 560" stroke="rgba(0, 21, 255, 1)" stroke-width="2"></path></g><defs><mask id="SvgjsMask1479"><rect width="1440" height="560" fill="#ffffff"></rect></mask></defs></svg>