<svg width="323" height="383" viewBox="0 0 323 383" fill="none" xmlns="http://www.w3.org/2000/svg">
<path d="M159.76 198.283C207.449 198.283 246.109 159.623 246.109 111.934C246.109 64.245 207.449 25.5853 159.76 25.5853C112.071 25.5853 73.4109 64.245 73.4109 111.934C73.4109 159.623 112.071 198.283 159.76 198.283Z" fill="#FFB6B6"/>
<path d="M110.19 211.052L106.289 171.618L184.19 157.052L230.19 269.052L150.19 361.052L93.1898 249.052L110.19 211.052Z" fill="#FFB6B6"/>
<path d="M105.037 191.357L122.069 195.205C122.069 195.205 108.68 152.751 113.225 148.698C117.769 144.645 128.905 151.031 128.905 151.031L140.607 164.151L154.861 149.639C154.861 149.639 170.336 130.396 176.395 124.992C182.454 119.588 172.721 99.5286 172.721 99.5286C172.721 99.5286 262.613 75.2893 229.164 31.6889C229.164 31.6889 209.553 -2.49563 203.167 8.64018C196.781 19.776 189.165 2.09006 189.165 2.09006L165.912 6.51202C165.912 6.51202 120.017 -20.5484 76.4583 37.3416C32.8992 95.2316 105.037 191.357 105.037 191.357Z" fill="#2F2E41"/>
<path d="M322.16 323.95C274.97 362.21 216.59 383 155 383C98.76 383 45.19 365.66 0.380005 333.52C0.460025 332.68 0.540036 331.85 0.610046 331.02C1.80005 318.02 2.86005 305.38 3.56 294.9C6.27002 254.21 101.2 227.09 101.2 227.09C101.2 227.09 101.63 227.52 102.49 228.27C107.73 232.87 129 249.55 166.3 254.21C199.56 258.37 210.51 238.64 213.82 229.19C214.82 226.31 215.12 224.38 215.12 224.38L312.76 270.49C319.13 279.59 321.62 299.19 322.11 321.22C322.13 322.13 322.15 323.03 322.16 323.95Z" fill="#6C63FF"/>
</svg>
