<svg xmlns="http://www.w3.org/2000/svg" version="1.1" xmlns:xlink="http://www.w3.org/1999/xlink" xmlns:svgjs="http://svgjs.dev/svgjs" width="1440" height="1500" preserveAspectRatio="none" viewBox="0 0 1440 1500"><g mask="url(&quot;#SvgjsMask1025&quot;)" fill="none"><rect width="1440" height="1500" x="0" y="0" fill="#0e2a47"></rect><path d="M0,647.923C119.65,654.1,184.434,506.416,275.182,428.191C351.741,362.197,438.847,310.763,491.34,224.387C548.433,130.442,583.734,25.544,586.67,-84.35C589.988,-208.534,590.538,-347.327,509.121,-441.156C427.712,-534.975,290.815,-560.545,166.835,-568.188C58.111,-574.89,-41.543,-524.987,-141.308,-481.252C-229.408,-442.631,-314.218,-399.496,-379.384,-328.738C-445.983,-256.424,-491.99,-169.502,-516.178,-74.215C-542.411,29.128,-574.522,145.452,-523.523,239.085C-472.87,332.082,-340.971,335.512,-257.509,400.691C-161.787,475.444,-121.291,641.661,0,647.923" fill="#0b2239"></path><path d="M1440 2079.63C1571.815 2100.775 1711.337 2167.452 1831.296 2108.869 1952.5810000000001 2049.638 1994.038 1901.3519999999999 2053.337 1780.101 2114.21 1655.631 2209.877 1528.989 2181.186 1393.434 2152.656 1258.6390000000001 2004.5439999999999 1192.797 1908.186 1094.315 1818.65 1002.806 1761.3980000000001 856.652 1635.154 835.366 1508.339 813.984 1406.274 934.571 1290.289 990.13 1195.378 1035.594 1099.05 1068.174 1015.517 1132.184 914.114 1209.887 765.984 1274.165 753.682 1401.3220000000001 741.273 1529.586 890.757 1610.301 958.6659999999999 1719.818 1016.0360000000001 1812.339 1034.649 1929.8809999999999 1121.843 1995.062 1211.552 2062.122 1329.411 2061.89 1440 2079.63" fill="#113255"></path></g><defs><mask id="SvgjsMask1025"><rect width="1440" height="1500" fill="#ffffff"></rect></mask></defs></svg>