<svg xmlns="http://www.w3.org/2000/svg" version="1.1" xmlns:xlink="http://www.w3.org/1999/xlink" xmlns:svgjs="http://svgjs.dev/svgjs" width="1440" height="1500" preserveAspectRatio="none" viewBox="0 0 1440 1500"><g mask="url(&quot;#SvgjsMask1016&quot;)" fill="none"><rect width="1440" height="1500" x="0" y="0" fill="#0e2a47"></rect><path d="M 0,273 C 57.6,359.8 172.8,689.6 288,707 C 403.2,724.4 460.8,380.6 576,360 C 691.2,339.4 748.8,672 864,604 C 979.2,536 1036.8,32 1152,20 C 1267.2,8 1382.4,439.2 1440,544L1440 1500L0 1500z" fill="#184a7e"></path><path d="M 0,935 C 96,1003.6 288,1312 480,1278 C 672,1244 768,752 960,765 C 1152,778 1344,1227.4 1440,1343L1440 1500L0 1500z" fill="#2264ab"></path></g><defs><mask id="SvgjsMask1016"><rect width="1440" height="1500" fill="#ffffff"></rect></mask></defs></svg>