<svg xmlns="http://www.w3.org/2000/svg" viewBox="0 0 750 500"><g id="freepik--background-complete--inject-156"><path d="M77.39,131.11c-.6-1.6-1.21-3.22-2.22-4.6-1.01-1.38-2.48-2.51-4.17-2.71-1.69-.21-3.57,.71-4.12,2.32-.24-3.64-.76-7.37-2.58-10.53-1.82-3.16-5.22-5.64-8.86-5.42-3.43,.21-6.37,2.76-8,5.78-1.63,3.03-2.19,6.5-2.73,9.89-1.3-1.6-4.05-1.09-5.41,.45-1.36,1.55-1.7,3.71-1.99,5.75h40.93l-.85-.95Z" style="fill:#f5f5f5;"></path><path d="M242.22,88.75c-1-2.67-2.02-5.38-3.7-7.68-1.68-2.3-4.14-4.19-6.97-4.54-2.83-.35-5.97,1.18-6.89,3.88-.41-6.08-1.27-12.32-4.31-17.61-3.05-5.28-8.73-9.43-14.81-9.06-5.74,.35-10.65,4.61-13.38,9.67-2.73,5.06-3.67,10.86-4.56,16.54-2.18-2.67-6.77-1.83-9.04,.76-2.27,2.59-2.85,6.21-3.33,9.62h68.43l-1.43-1.58Z" style="fill:#f5f5f5;"></path><path d="M466.42,88.75c-1-2.67-2.02-5.38-3.7-7.68-1.68-2.3-4.14-4.19-6.97-4.54-2.83-.35-5.97,1.18-6.89,3.88-.41-6.08-1.27-12.32-4.31-17.61-3.05-5.28-8.73-9.43-14.81-9.06-5.74,.35-10.65,4.61-13.38,9.67-2.73,5.06-3.67,10.86-4.56,16.54-2.18-2.67-6.77-1.83-9.04,.76-2.27,2.59-2.85,6.21-3.33,9.62h68.43l-1.43-1.58Z" style="fill:#ebebeb;"></path><path d="M611.23,60.53c-.71-1.89-1.43-3.81-2.62-5.44-1.19-1.63-2.93-2.96-4.93-3.21-2-.25-4.22,.84-4.88,2.75-.29-4.3-.9-8.72-3.05-12.46-2.15-3.74-6.17-6.67-10.48-6.41-4.06,.25-7.54,3.26-9.47,6.84-1.93,3.58-2.59,7.68-3.23,11.7-1.54-1.89-4.79-1.29-6.39,.54-1.61,1.83-2.01,4.39-2.35,6.8h48.41l-1.01-1.12Z" style="fill:#ebebeb;"></path><path d="M482.83,120.06c-.36-.96-.73-1.93-1.33-2.76-.6-.83-1.49-1.5-2.5-1.63-1.02-.12-2.14,.42-2.47,1.39-.15-2.18-.46-4.42-1.55-6.32-1.09-1.9-3.13-3.39-5.32-3.25-2.06,.13-3.82,1.66-4.8,3.47s-1.32,3.9-1.64,5.94c-.78-.96-2.43-.66-3.24,.27s-1.02,2.23-1.19,3.45h24.57l-.51-.57Z" style="fill:#f5f5f5;"></path><path d="M522.75,68.08c-.36-.96-.73-1.93-1.33-2.76-.6-.83-1.49-1.5-2.5-1.63-1.02-.12-2.14,.42-2.47,1.39-.15-2.18-.46-4.42-1.55-6.32-1.09-1.9-3.13-3.39-5.32-3.25-2.06,.13-3.82,1.66-4.8,3.47-.98,1.82-1.32,3.9-1.64,5.94-.78-.96-2.43-.66-3.24,.27s-1.02,2.23-1.19,3.45h24.57l-.51-.57Z" style="fill:#f5f5f5;"></path><path d="M705.24,93.09c-.36-.96-.73-1.93-1.33-2.76-.6-.83-1.49-1.5-2.5-1.63-1.02-.12-2.14,.42-2.47,1.39-.15-2.18-.46-4.42-1.55-6.32-1.09-1.9-3.13-3.39-5.32-3.25-2.06,.13-3.82,1.66-4.8,3.47s-1.32,3.9-1.64,5.94c-.78-.96-2.43-.66-3.24,.27-.81,.93-1.02,2.23-1.19,3.45h24.57l-.51-.57Z" style="fill:#f5f5f5;"></path><path d="M122.73,78.03c-.36-.96-.73-1.93-1.33-2.76s-1.49-1.5-2.5-1.63c-1.02-.12-2.14,.42-2.47,1.39-.15-2.18-.46-4.42-1.55-6.32-1.09-1.9-3.13-3.39-5.32-3.25-2.06,.13-3.82,1.66-4.8,3.47-.98,1.82-1.32,3.9-1.64,5.94-.78-.96-2.43-.66-3.24,.27s-1.02,2.23-1.19,3.45h24.57l-.51-.57Z" style="fill:#f5f5f5;"></path><g><rect x="139.42" y="220.94" width="13.36" height="45.93" transform="translate(292.21 487.8) rotate(180)" style="fill:#ebebeb;"></rect><path d="M196.76,220.79s-.66-.44,.79-2.33c1.45-1.9-.79-2.92-.79-2.92-6.31,3.64-15.13,0-15.13,0,0,0,10.39-3.21,11.71-6.27,.98-2.29-.75-2.54-1.69-2.52,1.06-.11,3.36-.49,4.06-1.71,.92-1.6-2.7-3.5-2.7-3.5,0,0,.59-.87,0-2.48-.59-1.6-14.14-3.94-14.14-3.94,3.95,.44,5.39-3.5,5.39-3.5,0,0,6.71,.15,8.29-2.48,1.58-2.62-1.05-3.35-5.52-5.54-4.47-2.19-14.34-10.35-14.34-10.35,0,0,6.18-.58,7.89-2.04,1.71-1.46,.13-1.75,.13-1.75,7.37,.73,4.87-3.21,4.87-3.21-9.87-3.06-15.13-9.77-15.13-9.77,0,0,4.6-1.02,6.97-3.21,2.37-2.19-1.97-2.77-1.97-2.77,0,0,8.68-1.17,3.68-4.37-3.8-2.44-9.88-5.72-11.77-6.7,2.07,.76,6.77-.15,6.77-.15,5.52-2.48,0-6.12,0-6.12-6.44-3.64-15.92-12.83-15.92-12.83,0,0,4.74,2.48,7.1,1.75,2.37-.73-2.63-3.64-2.63-3.64,0,0,2.5,.73,3.55,0,1.05-.73-2.76-4.08-2.76-4.08-5.67-3.68-12.66-13.35-15.58-17.51-2.92,4.15-9.91,13.82-15.58,17.51,0,0-3.81,3.35-2.76,4.08,1.05,.73,3.55,0,3.55,0,0,0-5,2.92-2.63,3.64,2.37,.73,7.1-1.75,7.1-1.75,0,0-9.47,9.18-15.92,12.83,0,0-5.52,3.64,0,6.12,0,0,4.7,.91,6.77,.15-1.89,.99-7.97,4.26-11.77,6.7-5,3.21,3.68,4.37,3.68,4.37,0,0-4.34,.58-1.97,2.77,2.37,2.19,6.97,3.21,6.97,3.21,0,0-5.26,6.71-15.13,9.77,0,0-2.5,3.94,4.87,3.21,0,0-1.58,.29,.13,1.75,1.71,1.46,7.89,2.04,7.89,2.04,0,0-9.86,8.16-14.34,10.35-4.47,2.19-7.1,2.92-5.52,5.54,1.58,2.62,8.29,2.48,8.29,2.48,0,0,1.45,3.94,5.39,3.5,0,0-13.55,2.33-14.14,3.94-.59,1.6,0,2.48,0,2.48,0,0-3.62,1.89-2.7,3.5,.7,1.22,3,1.6,4.06,1.71-.94-.02-2.67,.23-1.69,2.52,1.32,3.06,11.71,6.27,11.71,6.27,0,0-8.81,3.64-15.13,0,0,0-2.24,1.02-.79,2.92,1.45,1.9,.79,2.33,.79,2.33,0,0-3.29-2.48-1.84,1.31,1.45,3.79,9.08,6.12,9.08,6.12,0,0-4.34,.73-3.03,3.06,1.32,2.33,6.84,5.1,12.89,5.69s14.21-1.6,14.21-1.6c0,0-5.52,2.92-1.71,4.52,3.81,1.6,8.16-2.04,8.16-2.04,0,0-.79,3.73,2.37,2.45,3.16-1.28,5.79-3.76,5.79-3.76,0,0,.99,5.5,2.96,4.18,1.97,1.32,2.96-4.18,2.96-4.18,0,0,2.63,2.48,5.79,3.76,3.16,1.28,2.37-2.45,2.37-2.45,0,0,4.34,3.64,8.15,2.04,3.81-1.6-1.71-4.52-1.71-4.52,0,0,8.15,2.19,14.21,1.6,6.05-.58,11.57-3.35,12.89-5.69,1.32-2.33-3.03-3.06-3.03-3.06,0,0,7.63-2.33,9.08-6.12,1.45-3.79-1.84-1.31-1.84-1.31Z" style="fill:#ebebeb;"></path></g><g><rect x="626.78" y="217.59" width="14.9" height="51.24" transform="translate(1268.46 486.42) rotate(180)" style="fill:#ebebeb;"></rect><path d="M690.75,217.42s-.73-.49,.88-2.6c1.61-2.11-.88-3.25-.88-3.25-7.04,4.07-16.88,0-16.88,0,0,0,11.59-3.58,13.06-6.99,1.1-2.55-.84-2.83-1.89-2.81,1.18-.12,3.75-.54,4.53-1.9,1.03-1.79-3.01-3.9-3.01-3.9,0,0,.66-.98,0-2.76-.66-1.79-15.78-4.39-15.78-4.39,4.4,.49,6.02-3.9,6.02-3.9,0,0,7.48,.16,9.24-2.76,1.76-2.93-1.17-3.74-6.16-6.18-4.99-2.44-16-11.55-16-11.55,0,0,6.9-.65,8.8-2.28,1.91-1.63,.15-1.95,.15-1.95,8.22,.81,5.43-3.58,5.43-3.58-11.01-3.42-16.88-10.9-16.88-10.9,0,0,5.14-1.14,7.78-3.58,2.64-2.44-2.2-3.09-2.2-3.09,0,0,9.69-1.3,4.11-4.88-4.24-2.72-11.02-6.38-13.13-7.48,2.31,.85,7.55-.17,7.55-.17,6.16-2.76,0-6.83,0-6.83-7.19-4.07-17.76-14.31-17.76-14.31,0,0,5.28,2.76,7.92,1.95,2.64-.81-2.94-4.07-2.94-4.07,0,0,2.79,.81,3.96,0,1.17-.81-3.08-4.55-3.08-4.55-6.33-4.11-14.12-14.9-17.39-19.53-3.26,4.63-11.06,15.42-17.39,19.53,0,0-4.26,3.74-3.08,4.55,1.17,.81,3.96,0,3.96,0,0,0-5.58,3.25-2.93,4.07,2.64,.81,7.92-1.95,7.92-1.95,0,0-10.57,10.25-17.76,14.31,0,0-6.16,4.07,0,6.83,0,0,5.24,1.02,7.55,.17-2.11,1.1-8.89,4.76-13.13,7.48-5.58,3.58,4.11,4.88,4.11,4.88,0,0-4.84,.65-2.2,3.09,2.64,2.44,7.78,3.58,7.78,3.58,0,0-5.87,7.48-16.88,10.9,0,0-2.79,4.39,5.43,3.58,0,0-1.76,.33,.15,1.95,1.91,1.63,8.81,2.28,8.81,2.28,0,0-11.01,9.11-16,11.55-4.99,2.44-7.92,3.25-6.16,6.18,1.76,2.93,9.25,2.76,9.25,2.76,0,0,1.61,4.39,6.02,3.9,0,0-15.12,2.6-15.78,4.39-.66,1.79,0,2.76,0,2.76,0,0-4.03,2.11-3.01,3.9,.78,1.36,3.34,1.78,4.53,1.9-1.05-.02-2.98,.26-1.89,2.81,1.47,3.42,13.06,6.99,13.06,6.99,0,0-9.83,4.07-16.88,0,0,0-2.49,1.14-.88,3.25,1.61,2.11,.88,2.6,.88,2.6,0,0-3.67-2.76-2.05,1.46,1.61,4.23,10.13,6.83,10.13,6.83,0,0-4.84,.81-3.38,3.42,1.47,2.6,7.63,5.69,14.38,6.34,6.75,.65,15.85-1.79,15.85-1.79,0,0-6.16,3.25-1.91,5.04,4.26,1.79,9.1-2.28,9.1-2.28,0,0-.88,4.16,2.64,2.73,3.52-1.43,6.46-4.2,6.46-4.2,0,0,1.1,6.13,3.3,4.67,2.2,1.47,3.3-4.67,3.3-4.67,0,0,2.94,2.76,6.46,4.2,3.52,1.43,2.64-2.73,2.64-2.73,0,0,4.84,4.07,9.1,2.28,4.26-1.79-1.91-5.04-1.91-5.04,0,0,9.1,2.44,15.85,1.79,6.75-.65,12.91-3.74,14.38-6.34,1.47-2.6-3.38-3.42-3.38-3.42,0,0,8.51-2.6,10.13-6.83,1.61-4.23-2.05-1.46-2.05-1.46Z" style="fill:#ebebeb;"></path></g><g><rect x="525.75" y="220.94" width="13.36" height="45.93" transform="translate(1064.85 487.8) rotate(180)" style="fill:#ebebeb;"></rect><path d="M583.09,220.79s-.66-.44,.79-2.33c1.45-1.9-.79-2.92-.79-2.92-6.31,3.64-15.13,0-15.13,0,0,0,10.39-3.21,11.71-6.27,.98-2.29-.75-2.54-1.69-2.52,1.06-.11,3.36-.49,4.06-1.71,.92-1.6-2.7-3.5-2.7-3.5,0,0,.59-.87,0-2.48-.59-1.6-14.14-3.94-14.14-3.94,3.95,.44,5.39-3.5,5.39-3.5,0,0,6.71,.15,8.29-2.48,1.58-2.62-1.05-3.35-5.52-5.54-4.47-2.19-14.34-10.35-14.34-10.35,0,0,6.18-.58,7.89-2.04,1.71-1.46,.13-1.75,.13-1.75,7.37,.73,4.87-3.21,4.87-3.21-9.87-3.06-15.13-9.77-15.13-9.77,0,0,4.6-1.02,6.97-3.21,2.37-2.19-1.97-2.77-1.97-2.77,0,0,8.68-1.17,3.68-4.37-3.8-2.44-9.88-5.72-11.77-6.7,2.07,.76,6.77-.15,6.77-.15,5.52-2.48,0-6.12,0-6.12-6.44-3.64-15.92-12.83-15.92-12.83,0,0,4.74,2.48,7.1,1.75,2.37-.73-2.63-3.64-2.63-3.64,0,0,2.5,.73,3.55,0,1.05-.73-2.76-4.08-2.76-4.08-5.67-3.68-12.66-13.35-15.58-17.51-2.92,4.15-9.91,13.82-15.58,17.51,0,0-3.81,3.35-2.76,4.08,1.05,.73,3.55,0,3.55,0,0,0-5,2.92-2.63,3.64,2.37,.73,7.1-1.75,7.1-1.75,0,0-9.47,9.18-15.92,12.83,0,0-5.52,3.64,0,6.12,0,0,4.7,.91,6.77,.15-1.89,.99-7.97,4.26-11.77,6.7-5,3.21,3.68,4.37,3.68,4.37,0,0-4.34,.58-1.97,2.77,2.37,2.19,6.97,3.21,6.97,3.21,0,0-5.26,6.71-15.13,9.77,0,0-2.5,3.94,4.87,3.21,0,0-1.58,.29,.13,1.75,1.71,1.46,7.89,2.04,7.89,2.04,0,0-9.86,8.16-14.34,10.35-4.47,2.19-7.1,2.92-5.52,5.54,1.58,2.62,8.29,2.48,8.29,2.48,0,0,1.45,3.94,5.39,3.5,0,0-13.55,2.33-14.14,3.94-.59,1.6,0,2.48,0,2.48,0,0-3.62,1.89-2.7,3.5,.7,1.22,3,1.6,4.06,1.71-.94-.02-2.67,.23-1.69,2.52,1.32,3.06,11.71,6.27,11.71,6.27,0,0-8.81,3.64-15.13,0,0,0-2.24,1.02-.79,2.92,1.45,1.9,.79,2.33,.79,2.33,0,0-3.29-2.48-1.84,1.31,1.45,3.79,9.08,6.12,9.08,6.12,0,0-4.34,.73-3.03,3.06,1.32,2.33,6.84,5.1,12.89,5.69s14.21-1.6,14.21-1.6c0,0-5.52,2.92-1.71,4.52,3.81,1.6,8.16-2.04,8.16-2.04,0,0-.79,3.73,2.37,2.45,3.16-1.28,5.79-3.76,5.79-3.76,0,0,.99,5.5,2.96,4.18,1.97,1.32,2.96-4.18,2.96-4.18,0,0,2.63,2.48,5.79,3.76,3.16,1.28,2.37-2.45,2.37-2.45,0,0,4.34,3.64,8.15,2.04,3.81-1.6-1.71-4.52-1.71-4.52,0,0,8.15,2.19,14.21,1.6,6.05-.58,11.57-3.35,12.89-5.69,1.32-2.33-3.03-3.06-3.03-3.06,0,0,7.63-2.33,9.08-6.12,1.45-3.79-1.84-1.31-1.84-1.31Z" style="fill:#ebebeb;"></path></g><path d="M453.09,223.53s-.57-.38,.68-2.02c1.25-1.64-.68-2.52-.68-2.52-5.45,3.15-13.07,0-13.07,0,0,0,8.98-2.77,10.11-5.42,.85-1.98-.65-2.19-1.46-2.18,.92-.1,2.9-.42,3.5-1.47,.8-1.39-2.33-3.02-2.33-3.02,0,0,.51-.76,0-2.14-.51-1.39-12.22-3.4-12.22-3.4,3.41,.38,4.66-3.02,4.66-3.02,0,0,5.79,.13,7.16-2.14,1.36-2.27-.91-2.9-4.77-4.79-3.86-1.89-12.39-8.94-12.39-8.94,0,0,5.34-.5,6.82-1.76,1.48-1.26,.11-1.51,.11-1.51,6.36,.63,4.2-2.77,4.2-2.77-8.52-2.64-13.07-8.44-13.07-8.44,0,0,3.98-.88,6.02-2.77,2.05-1.89-1.7-2.39-1.7-2.39,0,0,7.5-1.01,3.18-3.78-3.28-2.11-8.53-4.94-10.16-5.79,1.79,.66,5.85-.13,5.85-.13,4.77-2.14,0-5.29,0-5.29-5.57-3.15-13.75-11.08-13.75-11.08,0,0,4.09,2.14,6.14,1.51,2.05-.63-2.27-3.15-2.27-3.15,0,0,2.16,.63,3.07,0,.91-.63-2.39-3.53-2.39-3.53-4.9-3.18-10.94-11.54-13.46-15.12-2.53,3.59-8.56,11.94-13.46,15.12,0,0-3.29,2.9-2.39,3.53,.91,.63,3.07,0,3.07,0,0,0-4.32,2.52-2.27,3.15,2.05,.63,6.14-1.51,6.14-1.51,0,0-8.18,7.93-13.75,11.08,0,0-4.77,3.15,0,5.29,0,0,4.06,.79,5.85,.13-1.63,.85-6.88,3.68-10.16,5.79-4.32,2.77,3.18,3.78,3.18,3.78,0,0-3.75,.5-1.7,2.39,2.05,1.89,6.02,2.77,6.02,2.77,0,0-4.55,5.79-13.07,8.44,0,0-2.16,3.4,4.2,2.77,0,0-1.36,.25,.11,1.51,1.48,1.26,6.82,1.76,6.82,1.76,0,0-8.52,7.05-12.39,8.94-3.86,1.89-6.14,2.52-4.77,4.79,1.36,2.27,7.16,2.14,7.16,2.14,0,0,1.25,3.4,4.66,3.02,0,0-11.7,2.02-12.22,3.4-.51,1.39,0,2.14,0,2.14,0,0-3.12,1.64-2.33,3.02,.6,1.05,2.59,1.38,3.5,1.47-.81-.02-2.31,.2-1.46,2.18,1.14,2.64,10.11,5.42,10.11,5.42,0,0-7.61,3.15-13.07,0,0,0-1.93,.88-.68,2.52,1.25,1.64,.68,2.02,.68,2.02,0,0-2.84-2.14-1.59,1.13,1.25,3.27,7.84,5.29,7.84,5.29,0,0-3.75,.63-2.61,2.64,1.14,2.02,5.91,4.41,11.14,4.91s12.27-1.39,12.27-1.39c0,0-4.77,2.52-1.48,3.9,3.3,1.39,7.05-1.76,7.05-1.76,0,0-.68,3.22,2.05,2.12,2.73-1.11,5-3.25,5-3.25,0,0,.85,4.75,2.55,3.61,1.7,1.14,2.55-3.61,2.55-3.61,0,0,2.27,2.14,5,3.25,2.73,1.11,2.05-2.12,2.05-2.12,0,0,3.75,3.15,7.04,1.76,3.3-1.39-1.48-3.9-1.48-3.9,0,0,7.05,1.89,12.27,1.39s10-2.9,11.14-4.91c1.14-2.02-2.61-2.64-2.61-2.64,0,0,6.59-2.01,7.84-5.29,1.25-3.27-1.59-1.13-1.59-1.13Z" style="fill:#ebebeb;"></path><path d="M167.12,133.61c-.07-.03-.14-.06-.21-.1,.07,.02,.14,.05,.21,.1Z"></path><g><rect x="265.07" y="215.07" width="15.07" height="51.8" transform="translate(545.21 481.93) rotate(180)" style="fill:#ebebeb;"></rect><path d="M329.75,214.9s-.74-.49,.89-2.63c1.63-2.14-.89-3.29-.89-3.29-7.12,4.11-17.06,0-17.06,0,0,0,11.72-3.62,13.2-7.07,1.11-2.58-.85-2.86-1.91-2.84,1.2-.12,3.79-.55,4.58-1.92,1.04-1.81-3.04-3.95-3.04-3.95,0,0,.67-.99,0-2.8-.67-1.81-15.95-4.44-15.95-4.44,4.45,.49,6.08-3.95,6.08-3.95,0,0,7.57,.16,9.35-2.8,1.78-2.96-1.19-3.78-6.23-6.25-5.04-2.47-16.17-11.67-16.17-11.67,0,0,6.97-.66,8.9-2.3,1.93-1.64,.15-1.97,.15-1.97,8.31,.82,5.49-3.62,5.49-3.62-11.13-3.45-17.06-11.02-17.06-11.02,0,0,5.19-1.15,7.86-3.62,2.67-2.47-2.23-3.12-2.23-3.12,0,0,9.79-1.32,4.15-4.93-4.29-2.75-11.14-6.45-13.27-7.56,2.34,.86,7.63-.17,7.63-.17,6.23-2.8,0-6.91,0-6.91-7.27-4.11-17.95-14.47-17.95-14.47,0,0,5.34,2.8,8.01,1.97,2.67-.82-2.97-4.11-2.97-4.11,0,0,2.82,.82,4.01,0,1.19-.82-3.12-4.6-3.12-4.6-6.4-4.16-14.28-15.06-17.58-19.75-3.3,4.68-11.18,15.59-17.58,19.75,0,0-4.3,3.78-3.12,4.6,1.19,.82,4.01,0,4.01,0,0,0-5.64,3.29-2.97,4.11,2.67,.82,8.01-1.97,8.01-1.97,0,0-10.68,10.36-17.95,14.47,0,0-6.23,4.11,0,6.91,0,0,5.3,1.03,7.63,.17-2.13,1.11-8.99,4.81-13.27,7.56-5.64,3.62,4.15,4.93,4.15,4.93,0,0-4.9,.66-2.22,3.12,2.67,2.47,7.86,3.62,7.86,3.62,0,0-5.93,7.56-17.06,11.02,0,0-2.82,4.44,5.49,3.62,0,0-1.78,.33,.15,1.97,1.93,1.64,8.9,2.3,8.9,2.3,0,0-11.13,9.21-16.17,11.67-5.04,2.47-8.01,3.29-6.23,6.25,1.78,2.96,9.35,2.8,9.35,2.8,0,0,1.63,4.44,6.08,3.95,0,0-15.28,2.63-15.95,4.44-.67,1.81,0,2.8,0,2.8,0,0-4.08,2.14-3.04,3.95,.79,1.38,3.38,1.8,4.58,1.92-1.06-.02-3.01,.26-1.91,2.84,1.48,3.45,13.2,7.07,13.2,7.07,0,0-9.94,4.11-17.06,0,0,0-2.52,1.15-.89,3.29,1.63,2.14,.89,2.63,.89,2.63,0,0-3.71-2.8-2.08,1.48,1.63,4.28,10.24,6.91,10.24,6.91,0,0-4.9,.82-3.41,3.45,1.48,2.63,7.71,5.76,14.54,6.41,6.82,.66,16.02-1.81,16.02-1.81,0,0-6.23,3.29-1.93,5.1,4.3,1.81,9.2-2.3,9.2-2.3,0,0-.89,4.21,2.67,2.76,3.56-1.45,6.53-4.24,6.53-4.24,0,0,1.11,6.2,3.33,4.72,2.22,1.48,3.34-4.72,3.34-4.72,0,0,2.97,2.8,6.53,4.24,3.56,1.45,2.67-2.76,2.67-2.76,0,0,4.9,4.11,9.2,2.3,4.3-1.81-1.93-5.1-1.93-5.1,0,0,9.2,2.47,16.02,1.81,6.82-.66,13.05-3.78,14.54-6.41,1.48-2.63-3.41-3.45-3.41-3.45,0,0,8.6-2.63,10.24-6.91,1.63-4.27-2.08-1.48-2.08-1.48Z" style="fill:#ebebeb;"></path><path d="M296.31,116.57c-.08-.04-.16-.07-.23-.11,.08,.02,.16,.06,.23,.11Z"></path></g><g><rect x="346.68" y="233.02" width="9.79" height="33.61" transform="translate(703.16 499.65) rotate(180)" style="fill:#e0e0e0;"></rect><path d="M388.72,232.91s-.48-.32,.58-1.71c1.06-1.39-.58-2.13-.58-2.13-4.63,2.67-11.09,0-11.09,0,0,0,7.62-2.35,8.58-4.59,.72-1.67-.55-1.86-1.24-1.85,.78-.08,2.46-.36,2.97-1.25,.68-1.17-1.98-2.56-1.98-2.56,0,0,.43-.64,0-1.81-.43-1.17-10.37-2.88-10.37-2.88,2.89,.32,3.95-2.56,3.95-2.56,0,0,4.92,.11,6.08-1.81,1.16-1.92-.77-2.45-4.05-4.05-3.28-1.6-10.51-7.57-10.51-7.57,0,0,4.53-.43,5.79-1.49,1.25-1.07,.1-1.28,.1-1.28,5.4,.53,3.57-2.35,3.57-2.35-7.23-2.24-11.09-7.15-11.09-7.15,0,0,3.38-.75,5.11-2.35,1.74-1.6-1.45-2.03-1.45-2.03,0,0,6.36-.85,2.7-3.2-2.79-1.78-7.24-4.18-8.63-4.9,1.52,.56,4.96-.11,4.96-.11,4.05-1.81,0-4.48,0-4.48-4.73-2.67-11.67-9.39-11.67-9.39,0,0,3.47,1.81,5.21,1.28,1.74-.53-1.93-2.67-1.93-2.67,0,0,1.83,.53,2.6,0,.77-.53-2.03-2.99-2.03-2.99-4.16-2.7-9.28-9.77-11.43-12.81-2.14,3.04-7.27,10.12-11.43,12.81,0,0-2.8,2.45-2.02,2.99,.77,.53,2.6,0,2.6,0,0,0-3.66,2.13-1.93,2.67,1.74,.53,5.21-1.28,5.21-1.28,0,0-6.94,6.72-11.67,9.39,0,0-4.05,2.67,0,4.48,0,0,3.44,.67,4.96,.11-1.39,.72-5.84,3.12-8.63,4.9-3.66,2.35,2.7,3.2,2.7,3.2,0,0-3.18,.43-1.45,2.03,1.74,1.6,5.11,2.35,5.11,2.35,0,0-3.86,4.91-11.09,7.15,0,0-1.83,2.88,3.57,2.35,0,0-1.16,.21,.1,1.28,1.25,1.07,5.79,1.49,5.79,1.49,0,0-7.23,5.97-10.51,7.57-3.28,1.6-5.21,2.13-4.05,4.05,1.16,1.92,6.08,1.81,6.08,1.81,0,0,1.06,2.88,3.95,2.56,0,0-9.93,1.71-10.37,2.88-.43,1.17,0,1.81,0,1.81,0,0-2.65,1.39-1.98,2.56,.51,.89,2.2,1.17,2.97,1.25-.69-.01-1.96,.17-1.24,1.85,.96,2.24,8.58,4.59,8.58,4.59,0,0-6.46,2.67-11.09,0,0,0-1.64,.75-.58,2.13,1.06,1.39,.58,1.71,.58,1.71,0,0-2.41-1.81-1.35,.96,1.06,2.77,6.65,4.48,6.65,4.48,0,0-3.18,.53-2.22,2.24,.96,1.71,5.01,3.73,9.45,4.16,4.44,.43,10.42-1.17,10.42-1.17,0,0-4.05,2.13-1.25,3.31,2.8,1.17,5.98-1.49,5.98-1.49,0,0-.58,2.73,1.74,1.79,2.31-.94,4.24-2.75,4.24-2.75,0,0,.72,4.02,2.17,3.06,1.45,.96,2.17-3.06,2.17-3.06,0,0,1.93,1.81,4.24,2.75,2.31,.94,1.74-1.79,1.74-1.79,0,0,3.18,2.67,5.98,1.49,2.8-1.17-1.25-3.31-1.25-3.31,0,0,5.98,1.6,10.41,1.17,4.44-.43,8.49-2.45,9.45-4.16,.96-1.71-2.22-2.24-2.22-2.24,0,0,5.59-1.71,6.65-4.48,1.06-2.77-1.35-.96-1.35-.96Z" style="fill:#e0e0e0;"></path><path d="M366.99,169.12c-.05-.02-.1-.05-.15-.07,.05,.01,.1,.04,.15,.07Z" style="fill:#e0e0e0;"></path></g><g><rect x="61.19" y="237.58" width="8.41" height="28.91" transform="translate(130.79 504.07) rotate(180)" style="fill:#ebebeb;"></rect><path d="M97.28,237.49s-.41-.28,.5-1.47c.91-1.19-.5-1.84-.5-1.84-3.97,2.29-9.52,0-9.52,0,0,0,6.54-2.02,7.37-3.95,.62-1.44-.47-1.6-1.06-1.59,.67-.07,2.11-.31,2.55-1.07,.58-1.01-1.7-2.2-1.7-2.2,0,0,.37-.55,0-1.56-.37-1.01-8.9-2.48-8.9-2.48,2.48,.28,3.39-2.2,3.39-2.2,0,0,4.22,.09,5.22-1.56,.99-1.65-.66-2.11-3.48-3.49-2.81-1.38-9.02-6.52-9.02-6.52,0,0,3.89-.37,4.97-1.28,1.08-.92,.08-1.1,.08-1.1,4.64,.46,3.06-2.02,3.06-2.02-6.21-1.93-9.52-6.15-9.52-6.15,0,0,2.9-.64,4.39-2.02,1.49-1.38-1.24-1.74-1.24-1.74,0,0,5.46-.73,2.32-2.75-2.39-1.53-6.22-3.6-7.41-4.22,1.3,.48,4.26-.09,4.26-.09,3.48-1.56,0-3.85,0-3.85-4.06-2.29-10.02-8.07-10.02-8.07,0,0,2.98,1.56,4.47,1.1,1.49-.46-1.66-2.29-1.66-2.29,0,0,1.57,.46,2.24,0,.66-.46-1.74-2.57-1.74-2.57-3.57-2.32-7.97-8.41-9.81-11.02-1.84,2.61-6.24,8.7-9.81,11.02,0,0-2.4,2.11-1.74,2.57s2.24,0,2.24,0c0,0-3.15,1.84-1.66,2.29,1.49,.46,4.47-1.1,4.47-1.1,0,0-5.96,5.78-10.02,8.07,0,0-3.48,2.29,0,3.85,0,0,2.96,.57,4.26,.09-1.19,.62-5.01,2.68-7.41,4.22-3.15,2.02,2.32,2.75,2.32,2.75,0,0-2.73,.37-1.24,1.74,1.49,1.38,4.39,2.02,4.39,2.02,0,0-3.31,4.22-9.52,6.15,0,0-1.57,2.48,3.06,2.02,0,0-.99,.18,.08,1.1,1.08,.92,4.97,1.28,4.97,1.28,0,0-6.21,5.14-9.02,6.52-2.81,1.38-4.47,1.84-3.48,3.49,.99,1.65,5.22,1.56,5.22,1.56,0,0,.91,2.48,3.39,2.2,0,0-8.53,1.47-8.9,2.48-.37,1.01,0,1.56,0,1.56,0,0-2.28,1.19-1.7,2.2,.44,.77,1.89,1,2.55,1.07-.59-.01-1.68,.15-1.06,1.59,.83,1.93,7.37,3.95,7.37,3.95,0,0-5.55,2.29-9.52,0,0,0-1.41,.64-.5,1.84,.91,1.19,.5,1.47,.5,1.47,0,0-2.07-1.56-1.16,.83,.91,2.39,5.71,3.85,5.71,3.85,0,0-2.73,.46-1.9,1.93,.83,1.47,4.31,3.21,8.11,3.58,3.81,.37,8.94-1.01,8.94-1.01,0,0-3.48,1.84-1.08,2.84,2.4,1.01,5.13-1.28,5.13-1.28,0,0-.5,2.35,1.49,1.54,1.99-.81,3.64-2.37,3.64-2.37,0,0,.62,3.46,1.86,2.63,1.24,.83,1.86-2.63,1.86-2.63,0,0,1.66,1.56,3.64,2.37,1.99,.81,1.49-1.54,1.49-1.54,0,0,2.73,2.29,5.13,1.28,2.4-1.01-1.08-2.84-1.08-2.84,0,0,5.13,1.38,8.94,1.01,3.81-.37,7.29-2.11,8.11-3.58,.83-1.47-1.9-1.93-1.9-1.93,0,0,4.8-1.47,5.71-3.85,.91-2.39-1.16-.83-1.16-.83Z" style="fill:#e0e0e0;"></path><path d="M78.63,182.61s-.09-.04-.13-.06c.05,.01,.09,.03,.13,.06Z"></path></g><g><rect x="684.33" y="237.58" width="8.41" height="28.91" transform="translate(1377.07 504.07) rotate(180)" style="fill:#ebebeb;"></rect><path d="M720.42,237.49s-.41-.28,.5-1.47c.91-1.19-.5-1.84-.5-1.84-3.97,2.29-9.52,0-9.52,0,0,0,6.54-2.02,7.37-3.95,.62-1.44-.47-1.6-1.06-1.59,.67-.07,2.11-.31,2.55-1.07,.58-1.01-1.7-2.2-1.7-2.2,0,0,.37-.55,0-1.56-.37-1.01-8.9-2.48-8.9-2.48,2.48,.28,3.39-2.2,3.39-2.2,0,0,4.22,.09,5.22-1.56,.99-1.65-.66-2.11-3.48-3.49-2.81-1.38-9.02-6.52-9.02-6.52,0,0,3.89-.37,4.97-1.28,1.08-.92,.08-1.1,.08-1.1,4.64,.46,3.06-2.02,3.06-2.02-6.21-1.93-9.52-6.15-9.52-6.15,0,0,2.9-.64,4.39-2.02,1.49-1.38-1.24-1.74-1.24-1.74,0,0,5.46-.73,2.32-2.75-2.39-1.53-6.22-3.6-7.41-4.22,1.3,.48,4.26-.09,4.26-.09,3.48-1.56,0-3.85,0-3.85-4.06-2.29-10.02-8.07-10.02-8.07,0,0,2.98,1.56,4.47,1.1,1.49-.46-1.66-2.29-1.66-2.29,0,0,1.57,.46,2.24,0,.66-.46-1.74-2.57-1.74-2.57-3.57-2.32-7.97-8.41-9.81-11.02-1.84,2.61-6.24,8.7-9.81,11.02,0,0-2.4,2.11-1.74,2.57s2.24,0,2.24,0c0,0-3.15,1.84-1.66,2.29,1.49,.46,4.47-1.1,4.47-1.1,0,0-5.96,5.78-10.02,8.07,0,0-3.48,2.29,0,3.85,0,0,2.96,.57,4.26,.09-1.19,.62-5.01,2.68-7.41,4.22-3.15,2.02,2.32,2.75,2.32,2.75,0,0-2.73,.37-1.24,1.74,1.49,1.38,4.39,2.02,4.39,2.02,0,0-3.31,4.22-9.52,6.15,0,0-1.57,2.48,3.06,2.02,0,0-.99,.18,.08,1.1,1.08,.92,4.97,1.28,4.97,1.28,0,0-6.21,5.14-9.02,6.52-2.81,1.38-4.47,1.84-3.48,3.49,.99,1.65,5.22,1.56,5.22,1.56,0,0,.91,2.48,3.39,2.2,0,0-8.53,1.47-8.9,2.48-.37,1.01,0,1.56,0,1.56,0,0-2.28,1.19-1.7,2.2,.44,.77,1.89,1,2.55,1.07-.59-.01-1.68,.15-1.06,1.59,.83,1.93,7.37,3.95,7.37,3.95,0,0-5.55,2.29-9.52,0,0,0-1.41,.64-.5,1.84,.91,1.19,.5,1.47,.5,1.47,0,0-2.07-1.56-1.16,.83,.91,2.39,5.71,3.85,5.71,3.85,0,0-2.73,.46-1.9,1.93,.83,1.47,4.31,3.21,8.11,3.58,3.81,.37,8.94-1.01,8.94-1.01,0,0-3.48,1.84-1.08,2.84,2.4,1.01,5.13-1.28,5.13-1.28,0,0-.5,2.35,1.49,1.54,1.99-.81,3.64-2.37,3.64-2.37,0,0,.62,3.46,1.86,2.63,1.24,.83,1.86-2.63,1.86-2.63,0,0,1.66,1.56,3.64,2.37,1.99,.81,1.49-1.54,1.49-1.54,0,0,2.73,2.29,5.13,1.28,2.4-1.01-1.08-2.84-1.08-2.84,0,0,5.13,1.38,8.94,1.01,3.81-.37,7.29-2.11,8.11-3.58,.83-1.47-1.9-1.93-1.9-1.93,0,0,4.8-1.47,5.71-3.85,.91-2.39-1.16-.83-1.16-.83Z" style="fill:#e0e0e0;"></path><path d="M701.76,182.61s-.09-.04-.13-.06c.05,.01,.09,.03,.13,.06Z"></path></g><g><rect x="483.19" y="237.58" width="8.41" height="28.91" transform="translate(974.78 504.07) rotate(180)" style="fill:#ebebeb;"></rect><path d="M519.28,237.49s-.41-.28,.5-1.47c.91-1.19-.5-1.84-.5-1.84-3.97,2.29-9.52,0-9.52,0,0,0,6.54-2.02,7.37-3.95,.62-1.44-.47-1.6-1.06-1.59,.67-.07,2.11-.31,2.55-1.07,.58-1.01-1.7-2.2-1.7-2.2,0,0,.37-.55,0-1.56-.37-1.01-8.9-2.48-8.9-2.48,2.48,.28,3.39-2.2,3.39-2.2,0,0,4.22,.09,5.22-1.56,.99-1.65-.66-2.11-3.48-3.49-2.81-1.38-9.02-6.52-9.02-6.52,0,0,3.89-.37,4.97-1.28,1.08-.92,.08-1.1,.08-1.1,4.64,.46,3.06-2.02,3.06-2.02-6.21-1.93-9.52-6.15-9.52-6.15,0,0,2.9-.64,4.39-2.02,1.49-1.38-1.24-1.74-1.24-1.74,0,0,5.46-.73,2.32-2.75-2.39-1.53-6.22-3.6-7.41-4.22,1.3,.48,4.26-.09,4.26-.09,3.48-1.56,0-3.85,0-3.85-4.06-2.29-10.02-8.07-10.02-8.07,0,0,2.98,1.56,4.47,1.1,1.49-.46-1.66-2.29-1.66-2.29,0,0,1.57,.46,2.24,0s-1.74-2.57-1.74-2.57c-3.57-2.32-7.97-8.41-9.81-11.02-1.84,2.61-6.24,8.7-9.81,11.02,0,0-2.4,2.11-1.74,2.57,.66,.46,2.24,0,2.24,0,0,0-3.15,1.84-1.66,2.29,1.49,.46,4.47-1.1,4.47-1.1,0,0-5.96,5.78-10.02,8.07,0,0-3.48,2.29,0,3.85,0,0,2.96,.57,4.26,.09-1.19,.62-5.01,2.68-7.41,4.22-3.15,2.02,2.32,2.75,2.32,2.75,0,0-2.73,.37-1.24,1.74,1.49,1.38,4.39,2.02,4.39,2.02,0,0-3.31,4.22-9.52,6.15,0,0-1.57,2.48,3.06,2.02,0,0-.99,.18,.08,1.1,1.08,.92,4.97,1.28,4.97,1.28,0,0-6.21,5.14-9.02,6.52-2.81,1.38-4.47,1.84-3.48,3.49,.99,1.65,5.22,1.56,5.22,1.56,0,0,.91,2.48,3.39,2.2,0,0-8.53,1.47-8.9,2.48-.37,1.01,0,1.56,0,1.56,0,0-2.28,1.19-1.7,2.2,.44,.77,1.89,1,2.55,1.07-.59-.01-1.68,.15-1.06,1.59,.83,1.93,7.37,3.95,7.37,3.95,0,0-5.55,2.29-9.52,0,0,0-1.41,.64-.5,1.84,.91,1.19,.5,1.47,.5,1.47,0,0-2.07-1.56-1.16,.83,.91,2.39,5.71,3.85,5.71,3.85,0,0-2.73,.46-1.9,1.93,.83,1.47,4.31,3.21,8.11,3.58,3.81,.37,8.94-1.01,8.94-1.01,0,0-3.48,1.84-1.08,2.84,2.4,1.01,5.13-1.28,5.13-1.28,0,0-.5,2.35,1.49,1.54,1.99-.81,3.64-2.37,3.64-2.37,0,0,.62,3.46,1.86,2.63,1.24,.83,1.86-2.63,1.86-2.63,0,0,1.66,1.56,3.64,2.37,1.99,.81,1.49-1.54,1.49-1.54,0,0,2.73,2.29,5.13,1.28,2.4-1.01-1.08-2.84-1.08-2.84,0,0,5.13,1.38,8.94,1.01,3.81-.37,7.29-2.11,8.11-3.58,.83-1.47-1.9-1.93-1.9-1.93,0,0,4.8-1.47,5.71-3.85,.91-2.39-1.16-.83-1.16-.83Z" style="fill:#e0e0e0;"></path><path d="M500.62,182.61s-.09-.04-.13-.06c.05,.01,.09,.03,.13,.06Z"></path></g><g><path d="M342.8,80.92s-.56-.19-1.59-.42c-1.03-.23-2.57-.43-4.45-.17-1.86,.25-4.06,1-5.99,2.58-1.92,1.56-3.57,3.92-4.23,6.71l-.02,.07-.12,.48-.18-.46c-1.08-2.66-2.99-4.77-5.06-6.11-2.08-1.37-4.32-1.93-6.18-2.06-1.88-.13-3.4,.14-4.42,.4-1.02,.27-1.56,.51-1.57,.48,0-.01,.13-.07,.38-.19,.26-.11,.64-.26,1.15-.41,1.01-.31,2.55-.61,4.47-.51,1.9,.1,4.19,.65,6.33,2.04,2.13,1.36,4.1,3.52,5.2,6.24l-.31,.02,.02-.08c.68-2.88,2.37-5.29,4.36-6.87,1.99-1.61,4.25-2.36,6.15-2.58,1.91-.23,3.47,0,4.5,.28,.52,.13,.91,.27,1.17,.37,.26,.1,.4,.16,.39,.17Z" style="fill:#e0e0e0;"></path><path d="M372.25,90.72s-.31-.09-.88-.2c-.57-.12-1.41-.22-2.43-.07-1.01,.14-2.21,.56-3.26,1.42-1.05,.85-1.94,2.14-2.3,3.66v.04l-.13,.48-.18-.45c-.59-1.45-1.63-2.6-2.75-3.33-1.13-.75-2.35-1.06-3.37-1.14-1.03-.08-1.86,.06-2.42,.2-.56,.14-.86,.26-.87,.23,0-.01,.07-.05,.21-.12,.14-.07,.35-.15,.63-.24,.56-.18,1.41-.36,2.47-.31,1.05,.05,2.33,.35,3.51,1.12,1.18,.75,2.28,1.95,2.89,3.46l-.31,.02v-.04c.39-1.6,1.33-2.94,2.44-3.82,1.11-.89,2.37-1.3,3.42-1.42,1.06-.12,1.92,.02,2.49,.17,.29,.08,.5,.15,.64,.22,.14,.06,.21,.1,.21,.11Z" style="fill:#e0e0e0;"></path><path d="M355.85,41.24s-.3,.35-.85,.97c-.55,.62-1.3,1.56-2.09,2.82-1.58,2.48-3.15,6.43-3.1,10.96v.14l-.32,.03c-.33-2.21-1.07-4.24-2-5.94-.93-1.7-2.02-3.08-3.05-4.12-1.03-1.04-1.97-1.78-2.65-2.24-.68-.47-1.07-.7-1.05-.73,0,0,.11,.04,.3,.14,.19,.11,.48,.25,.82,.48,.7,.44,1.67,1.15,2.74,2.19,1.06,1.03,2.19,2.42,3.15,4.14,.96,1.72,1.72,3.78,2.06,6.03l-.32,.03v-.14c-.05-4.61,1.59-8.61,3.23-11.09,.82-1.25,1.6-2.18,2.19-2.78,.28-.31,.53-.52,.69-.67,.16-.15,.25-.22,.26-.21Z" style="fill:#e0e0e0;"></path></g></g></svg>
